# This file uses centimeters as units for non-parametric coordinates.

v 0.499998 -0.300000 -0.200000
v 0.599999 1.154488 -0.200000
v 0.599999 1.154488 0.000000
v 0.499998 -0.300000 0.000000
v 0.399999 -0.300000 -0.200000
v 0.399999 -0.300000 0.000000
v 0.399999 1.600000 0.000000
v 0.399999 1.600000 -0.200000
v 0.199999 -0.300000 -0.200000
v 0.199999 1.800000 -0.200000
v 0.199999 1.800000 0.000000
v 0.199999 -0.300000 0.000000
v 0.150000 0.813961 -0.500000
v 0.150000 0.813961 -1.000000
v 0.150000 1.040980 -0.500000
v 0.150000 1.040980 -1.000000
v 0.050000 1.040980 -0.500000
v 0.050000 1.040980 -1.000000
v 0.050000 0.813961 -0.500000
v 0.050000 0.813961 -1.000000
v 0.150000 0.473409 -0.500000
v 0.150000 0.473409 -1.000000
v 0.150000 0.700441 -0.500000
v 0.150000 0.700441 -1.000000
v 0.050000 0.700441 -0.500000
v 0.050000 0.700441 -1.000000
v 0.050000 0.473409 -0.500000
v 0.050000 0.473409 -1.000000
v 0.200000 -0.300000 -0.500000
v 0.200000 1.154488 -0.599999
v -0.000000 1.154488 -0.599999
v -0.000000 -0.300000 -0.500000
v 0.200000 -0.300000 -0.400001
v -0.000000 -0.300000 -0.400001
v -0.000000 1.600000 -0.400001
v 0.200000 1.600000 -0.400001
v 0.000000 1.800000 -0.200000
v 0.000000 -0.300000 -0.200000
v -0.000000 1.800000 0.000000
v -0.000000 -0.300000 0.000000
v 0.500000 0.473409 -0.050000
v 1.000000 0.473409 -0.050000
v 1.000000 0.700441 -0.050000
v 0.500000 0.700441 -0.050000
v 1.000000 0.700441 -0.150000
v 0.500000 0.700441 -0.150000
v 1.000000 0.473409 -0.150000
v 0.500000 0.473409 -0.150000
v 0.500000 0.813961 -0.050000
v 1.000000 0.813961 -0.050000
v 1.000000 1.040980 -0.050000
v 0.500000 1.040980 -0.050000
v 1.000000 1.040980 -0.150000
v 0.500000 1.040980 -0.150000
v 1.000000 0.813961 -0.150000
v 0.500000 0.813961 -0.150000
vt 0.165155 0.416529
vt 0.165768 0.014152
vt 0.208123 0.014217
vt 0.478620 0.479889
vt 0.418727 0.522256
vt 0.478627 0.522244
vt 0.334296 0.014207
vt 0.291941 0.014358
vt 0.006555 0.522334
vt 0.006548 0.479978
vt 0.315299 0.479919
vt 0.315308 0.522276
vt 0.355473 0.014132
vt 0.144590 0.014120
vt 0.377749 0.322082
vt 0.207446 0.458949
vt 0.418720 0.479900
vt 0.335730 0.416582
vt 0.122943 0.322115
vt 0.905653 0.848077
vt 0.694347 0.848077
vt 0.694347 0.799999
vt 0.905653 0.799999
vt 0.694347 0.778822
vt 0.905653 0.778822
vt 0.694347 0.730745
vt 0.905653 0.730745
vt 0.905653 0.869255
vt 0.694347 0.869254
vt 0.905653 0.848079
vt 0.694347 0.848079
vt 0.694347 0.799999
vt 0.905653 0.800000
vt 0.694347 0.778823
vt 0.905653 0.778823
vt 0.694347 0.730744
vt 0.905653 0.730743
vt 0.905653 0.869256
vt 0.694347 0.869256
vt 0.249866 0.416658
vt 0.250478 0.014281
vt 0.520963 0.419980
vt 0.520974 0.479880
vt 0.478607 0.419989
vt 0.164875 0.014811
vt 0.207230 0.014660
vt 0.208816 0.459389
vt 0.166309 0.417185
vt 0.520885 0.007809
vt 0.520944 0.316561
vt 0.478588 0.316569
vt 0.478530 0.007816
vt 0.143698 0.014887
vt 0.271656 0.014313
vt 0.123618 0.322987
vt 0.292365 0.322373
vt 0.251171 0.459239
vt 0.249586 0.014509
vt 0.905653 0.848079
vt 0.694347 0.848079
vt 0.694347 0.800000
vt 0.905653 0.800000
vt 0.694347 0.778823
vt 0.905653 0.778823
vt 0.694347 0.730744
vt 0.905653 0.730744
vt 0.905653 0.869256
vt 0.694347 0.869256
vt 0.905653 0.848077
vt 0.694347 0.848077
vt 0.694347 0.800000
vt 0.905653 0.800000
vt 0.694347 0.778822
vt 0.905653 0.778822
vt 0.694347 0.730745
vt 0.905653 0.730745
vt 0.905653 0.869255
vt 0.694347 0.869255
vt 0.520982 0.522236
vt 0.293526 0.459087
vn 0.000000 0.000000 -1.000000
vn 0.000000 0.000000 -1.000000
vn 0.000000 0.000000 -1.000000
vn 0.000000 0.000000 -1.000000
vn 0.850031 0.526733 0.000001
vn 0.850031 0.526733 0.000001
vn 0.707107 0.707107 0.000002
vn 0.707107 0.707107 0.000002
vn 0.000000 0.000000 1.000000
vn 0.000000 0.000000 1.000000
vn 0.000000 0.000000 1.000000
vn 0.000000 0.000000 1.000000
vn 0.997645 -0.068592 0.000000
vn 0.997645 -0.068592 0.000000
vn 0.997645 -0.068592 0.000000
vn 0.997645 -0.068592 0.000000
vn 0.000000 0.000000 1.000000
vn 0.000000 0.000000 1.000000
vn 0.912289 0.409547 0.000000
vn 0.912289 0.409547 0.000000
vn 0.000000 0.000000 -1.000000
vn 0.000000 0.000000 -1.000000
vn 1.000000 0.000000 -0.000000
vn 1.000000 0.000000 -0.000000
vn 1.000000 0.000000 -0.000000
vn 1.000000 0.000000 -0.000000
vn 0.000000 1.000000 0.000000
vn 0.000000 1.000000 0.000000
vn 0.000000 1.000000 0.000000
vn 0.000000 1.000000 0.000000
vn -1.000000 0.000000 0.000000
vn -1.000000 0.000000 0.000000
vn -1.000000 0.000000 0.000000
vn -1.000000 0.000000 0.000000
vn 0.000000 -1.000000 0.000000
vn 0.000000 -1.000000 0.000000
vn 0.000000 -1.000000 0.000000
vn 0.000000 -1.000000 0.000000
vn 1.000000 0.000000 -0.000000
vn 1.000000 0.000000 -0.000000
vn 1.000000 0.000000 -0.000000
vn 1.000000 0.000000 -0.000000
vn 0.000000 1.000000 0.000000
vn 0.000000 1.000000 0.000000
vn 0.000000 1.000000 0.000000
vn 0.000000 1.000000 0.000000
vn -1.000000 0.000000 0.000000
vn -1.000000 0.000000 0.000000
vn -1.000000 0.000000 0.000000
vn -1.000000 0.000000 0.000000
vn 0.000000 -1.000000 0.000000
vn 0.000000 -1.000000 0.000000
vn 0.000000 -1.000000 0.000000
vn 0.000000 -1.000000 0.000000
vn 1.000000 0.000000 0.000002
vn 1.000000 0.000000 0.000002
vn 1.000000 0.000000 0.000002
vn 1.000000 0.000000 0.000001
vn -0.000000 0.526732 -0.850032
vn -0.000000 0.707108 -0.707105
vn -0.000000 0.707108 -0.707105
vn -0.000000 0.526732 -0.850032
vn -1.000000 0.000000 0.000001
vn -1.000000 0.000000 0.000001
vn -1.000000 0.000000 0.000001
vn -1.000000 0.000000 0.000001
vn 0.000000 -0.068590 -0.997645
vn 0.000000 -0.068590 -0.997645
vn 0.000000 -0.068590 -0.997645
vn 0.000000 -0.068590 -0.997645
vn -1.000000 0.000000 0.000001
vn -1.000000 0.000000 0.000001
vn 0.000000 0.409544 -0.912290
vn 0.000000 0.409544 -0.912290
vn 1.000000 0.000000 -0.000000
vn 1.000000 0.000000 -0.000000
vn -0.000000 1.000000 0.000001
vn -0.000000 1.000000 0.000001
vn -0.000000 1.000000 0.000001
vn -0.000000 1.000000 0.000001
vn 0.000000 0.000000 1.000000
vn 0.000000 0.000000 1.000000
vn 0.000000 0.000000 1.000000
vn 0.000000 0.000000 1.000000
vn -1.000000 0.000000 -0.000002
vn -1.000000 0.000000 -0.000002
vn -1.000000 0.000000 -0.000002
vn -1.000000 0.000000 -0.000002
vn 0.000000 0.000000 1.000000
vn 0.000000 0.000000 1.000000
vn 0.000000 0.000000 1.000000
vn 0.000000 0.000000 1.000000
vn 0.000000 1.000000 0.000000
vn 0.000000 1.000000 0.000000
vn 0.000000 1.000000 0.000000
vn 0.000000 1.000000 0.000000
vn 0.000000 0.000000 -1.000000
vn 0.000000 0.000000 -1.000000
vn 0.000000 0.000000 -1.000000
vn 0.000000 0.000000 -1.000000
vn 0.000000 -1.000000 0.000000
vn 0.000000 -1.000000 0.000000
vn 0.000000 -1.000000 0.000000
vn 0.000000 -1.000000 0.000000
vn 0.000000 0.000000 1.000000
vn 0.000000 0.000000 1.000000
vn 0.000000 0.000000 1.000000
vn 0.000000 0.000000 1.000000
vn 0.000000 1.000000 0.000000
vn 0.000000 1.000000 0.000000
vn 0.000000 1.000000 0.000000
vn 0.000000 1.000000 0.000000
vn 0.000000 0.000000 -1.000000
vn 0.000000 0.000000 -1.000000
vn 0.000000 0.000000 -1.000000
vn 0.000000 0.000000 -1.000000
vn 0.000000 -1.000000 0.000000
vn 0.000000 -1.000000 0.000000
vn 0.000000 -1.000000 0.000000
vn 0.000000 -1.000000 0.000000
s 1
f 8/1/1 5/2/2 9/3/3 10/16/4
s 2
f 7/5/5 8/17/6 10/4/7 11/6/8
s 3
f 6/7/9 7/18/10 11/80/11 12/8/12
s off
f 4/9/13 1/10/14 2/11/15 3/12/16
s 3
f 3/15/17 7/18/10 6/7/9 4/13/18
s 2
f 2/11/19 8/17/6 7/5/5 3/12/20
s 1
f 1/14/21 5/2/2 8/1/1 2/19/22
s off
f 13/20/23 14/21/24 16/22/25 15/23/26
f 15/23/27 16/22/28 18/24/29 17/25/30
f 17/25/31 18/24/32 20/26/33 19/27/34
f 19/28/35 20/29/36 14/21/37 13/20/38
f 21/30/39 22/31/40 24/32/41 23/33/42
f 23/33/43 24/32/44 26/34/45 25/35/46
f 25/35/47 26/34/48 28/36/49 27/37/50
f 27/38/51 28/39/52 22/31/53 21/30/54
s 4
f 36/40/55 10/16/56 9/3/57 33/41/58
s 5
f 35/42/59 37/43/60 10/4/61 36/44/62
s 6
f 34/45/63 38/46/64 37/47/65 35/48/66
s off
f 32/49/67 31/50/68 30/51/69 29/52/70
s 6
f 31/55/71 32/53/72 34/45/63 35/48/66
s 5
f 30/51/73 31/50/74 35/42/59 36/44/62
s 4
f 29/54/75 30/56/76 36/40/55 33/41/58
s off
f 11/6/77 10/4/78 37/43/79 39/79/80
f 11/80/81 39/57/82 40/58/83 12/8/84
f 39/57/85 37/47/86 38/46/87 40/58/88
f 41/59/89 42/60/90 43/61/91 44/62/92
f 44/62/93 43/61/94 45/63/95 46/64/96
f 46/64/97 45/63/98 47/65/99 48/66/100
f 48/67/101 47/68/102 42/60/103 41/59/104
f 49/69/105 50/70/106 51/71/107 52/72/108
f 52/72/109 51/71/110 53/73/111 54/74/112
f 54/74/113 53/73/114 55/75/115 56/76/116
f 56/77/117 55/78/118 50/70/119 49/69/120
