# This file uses centimeters as units for non-parametric coordinates.

v 0.000000 0.813961 -0.050000
v 1.000000 0.813961 -0.050000
v 0.000000 1.040980 -0.050000
v 1.000000 1.040980 -0.050000
v 0.000000 1.040980 -0.150000
v 1.000000 1.040980 -0.150000
v 0.000000 0.813961 -0.150000
v 1.000000 0.813961 -0.150000
v 0.000000 0.473409 -0.050000
v 1.000000 0.473409 -0.050000
v 0.000000 0.700441 -0.050000
v 1.000000 0.700441 -0.050000
v 0.000000 0.700441 -0.150000
v 1.000000 0.700441 -0.150000
v 0.000000 0.473409 -0.150000
v 1.000000 0.473409 -0.150000
vt 0.905653 0.848077
vt 0.694347 0.848077
vt 0.905653 0.800000
vt 0.694347 0.800000
vt 0.905653 0.778822
vt 0.694347 0.778822
vt 0.905653 0.869255
vt 0.694347 0.730745
vt 0.905653 0.848080
vt 0.694347 0.848079
vt 0.694347 0.800001
vt 0.905653 0.800000
vt 0.694347 0.778822
vt 0.905653 0.778822
vt 0.694347 0.730743
vt 0.905653 0.869257
vt 0.694347 0.869257
vt 0.905653 0.730743
vt 0.694347 0.869255
vt 0.905653 0.730745
vn 0.000000 0.000000 1.000000
vn 0.000000 0.000000 1.000000
vn 0.000000 0.000000 1.000000
vn 0.000000 0.000000 1.000000
vn 0.000000 1.000000 0.000000
vn 0.000000 1.000000 0.000000
vn 0.000000 1.000000 0.000000
vn 0.000000 1.000000 0.000000
vn 0.000000 0.000000 -1.000000
vn 0.000000 0.000000 -1.000000
vn 0.000000 0.000000 -1.000000
vn 0.000000 0.000000 -1.000000
vn 0.000000 -1.000000 0.000000
vn 0.000000 -1.000000 0.000000
vn 0.000000 -1.000000 0.000000
vn 0.000000 -1.000000 0.000000
vn 0.000000 0.000000 1.000000
vn 0.000000 0.000000 1.000000
vn 0.000000 0.000000 1.000000
vn 0.000000 0.000000 1.000000
vn 0.000000 1.000000 0.000000
vn 0.000000 1.000000 0.000000
vn 0.000000 1.000000 0.000000
vn 0.000000 1.000000 0.000000
vn 0.000000 0.000000 -1.000000
vn 0.000000 0.000000 -1.000000
vn 0.000000 0.000000 -1.000000
vn 0.000000 0.000000 -1.000000
vn 0.000000 -1.000000 0.000000
vn 0.000000 -1.000000 0.000000
vn 0.000000 -1.000000 0.000000
vn 0.000000 -1.000000 0.000000
s off
f 1/1/1 2/2/2 4/4/3 3/3/4
f 3/3/5 4/4/6 6/6/7 5/5/8
f 5/5/9 6/6/10 8/8/11 7/20/12
f 7/7/13 8/19/14 2/2/15 1/1/16
f 9/9/17 10/10/18 12/11/19 11/12/20
f 11/12/21 12/11/22 14/13/23 13/14/24
f 13/14/25 14/13/26 16/15/27 15/18/28
f 15/16/29 16/17/30 10/10/31 9/9/32
