# This file uses centimeters as units for non-parametric coordinates.

v 0.200000 -0.300000 0.299998
v 0.200000 1.154488 0.400000
v 0.000000 1.154488 0.400000
v 0.000000 -0.300000 0.299998
v 0.200000 -0.300000 0.199999
v 0.000000 -0.300000 0.199999
v 0.000000 1.600000 0.199999
v 0.200000 1.600000 0.199999
v 0.199999 -0.300000 -0.000000
v 0.199999 1.800000 -0.000000
v -0.000000 1.800000 -0.000000
v -0.000000 -0.300000 -0.000000
v 0.150000 0.473409 1.000000
v 0.150000 0.473409 0.300000
v 0.150000 0.700441 0.300000
v 0.150000 0.700441 1.000000
v 0.050000 0.700441 0.300000
v 0.050000 0.700441 1.000000
v 0.050000 0.473409 0.300000
v 0.050000 0.473409 1.000000
v 0.150000 0.813961 1.000000
v 0.150000 0.813961 0.300000
v 0.150000 1.040980 0.300000
v 0.150000 1.040980 1.000000
v 0.050000 1.040980 0.300000
v 0.050000 1.040980 1.000000
v 0.050000 0.813961 0.300000
v 0.050000 0.813961 1.000000
v 0.499998 -0.300000 -0.200000
v 0.599999 1.154488 -0.200000
v 0.599999 1.154488 0.000000
v 0.499998 -0.300000 0.000000
v 0.399999 -0.300000 -0.200000
v 0.399999 -0.300000 0.000000
v 0.399999 1.600000 0.000000
v 0.399999 1.600000 -0.200000
v 0.199999 -0.300000 -0.200000
v 0.199999 1.800000 -0.200000
v 0.150000 0.813961 -0.500000
v 0.150000 0.813961 -1.000000
v 0.150000 1.040980 -0.500000
v 0.150000 1.040980 -1.000000
v 0.050000 1.040980 -0.500000
v 0.050000 1.040980 -1.000000
v 0.050000 0.813961 -0.500000
v 0.050000 0.813961 -1.000000
v 0.150000 0.473409 -0.500000
v 0.150000 0.473409 -1.000000
v 0.150000 0.700441 -0.500000
v 0.150000 0.700441 -1.000000
v 0.050000 0.700441 -0.500000
v 0.050000 0.700441 -1.000000
v 0.050000 0.473409 -0.500000
v 0.050000 0.473409 -1.000000
v 0.200000 -0.300000 -0.500000
v 0.200000 1.154488 -0.599999
v -0.000000 1.154488 -0.599999
v -0.000000 -0.300000 -0.500000
v 0.200000 -0.300000 -0.400001
v -0.000000 -0.300000 -0.400001
v -0.000000 1.600000 -0.400001
v 0.200000 1.600000 -0.400001
v 0.000000 1.800000 -0.200000
v 0.000000 -0.300000 -0.200000
v 0.500000 0.473409 -0.050000
v 1.000000 0.473409 -0.050000
v 1.000000 0.700441 -0.050000
v 0.500000 0.700441 -0.050000
v 1.000000 0.700441 -0.150000
v 0.500000 0.700441 -0.150000
v 1.000000 0.473409 -0.150000
v 0.500000 0.473409 -0.150000
v 0.500000 0.813961 -0.050000
v 1.000000 0.813961 -0.050000
v 1.000000 1.040980 -0.050000
v 0.500000 1.040980 -0.050000
v 1.000000 1.040980 -0.150000
v 0.500000 1.040980 -0.150000
v 1.000000 0.813961 -0.150000
v 0.500000 0.813961 -0.150000
vt 0.165155 0.416529
vt 0.165766 0.014152
vt 0.521379 0.522114
vt 0.581277 0.479756
vt 0.521378 0.479758
vt 0.334950 0.014296
vt 0.292594 0.014428
vt 0.993451 0.479742
vt 0.993452 0.522098
vt 0.684699 0.522109
vt 0.684697 0.479753
vt 0.356127 0.014231
vt 0.144589 0.014120
vt 0.378262 0.322191
vt 0.207446 0.458949
vt 0.581278 0.522111
vt 0.336199 0.416672
vt 0.122943 0.322115
vt 0.905653 0.848081
vt 0.694347 0.848081
vt 0.694347 0.800000
vt 0.905653 0.800000
vt 0.694347 0.778823
vt 0.905653 0.778823
vt 0.694347 0.730742
vt 0.905653 0.730742
vt 0.905653 0.869258
vt 0.694347 0.869258
vt 0.905653 0.848079
vt 0.694347 0.848079
vt 0.694347 0.800000
vt 0.905653 0.800000
vt 0.694347 0.778822
vt 0.905653 0.778822
vt 0.694347 0.730743
vt 0.905653 0.730743
vt 0.905653 0.869257
vt 0.694347 0.869257
vt 0.165155 0.416529
vt 0.165767 0.014152
vt 0.207446 0.458949
vt 0.521381 0.582013
vt 0.479026 0.582014
vt 0.479024 0.522116
vt 0.250477 0.014281
vt 0.249866 0.416658
vt 0.521396 0.994187
vt 0.479040 0.994189
vt 0.479030 0.685435
vt 0.521385 0.685433
vt 0.144590 0.014120
vt 0.292364 0.322373
vt 0.122943 0.322115
vt 0.905653 0.848077
vt 0.694347 0.848077
vt 0.694347 0.800000
vt 0.905653 0.800000
vt 0.694347 0.778822
vt 0.905653 0.778822
vt 0.694347 0.730745
vt 0.905653 0.730745
vt 0.905653 0.869255
vt 0.694347 0.869255
vt 0.905653 0.848079
vt 0.694347 0.848079
vt 0.694347 0.800000
vt 0.905653 0.800000
vt 0.694347 0.778823
vt 0.905653 0.778823
vt 0.694347 0.730744
vt 0.905653 0.730744
vt 0.905653 0.869256
vt 0.694347 0.869256
vt 0.249866 0.416658
vt 0.419123 0.479762
vt 0.208813 0.459290
vt 0.419124 0.522117
vt 0.165076 0.014691
vt 0.207431 0.014559
vt 0.166326 0.417067
vt 0.006949 0.479776
vt 0.315703 0.479766
vt 0.315704 0.522121
vt 0.006950 0.522132
vt 0.143898 0.014757
vt 0.271656 0.014313
vt 0.123677 0.322849
vt 0.292365 0.322373
vt 0.905653 0.848079
vt 0.694347 0.848079
vt 0.694347 0.800000
vt 0.905653 0.800000
vt 0.694347 0.778822
vt 0.905653 0.778823
vt 0.694347 0.730743
vt 0.905653 0.730743
vt 0.905653 0.869256
vt 0.694347 0.869256
vt 0.905653 0.848077
vt 0.694347 0.848077
vt 0.694347 0.800000
vt 0.905653 0.800000
vt 0.694347 0.778823
vt 0.905653 0.778823
vt 0.694347 0.730745
vt 0.905653 0.730745
vt 0.905653 0.869255
vt 0.694347 0.869255
vt 0.208121 0.014217
vt 0.250478 0.014281
vt 0.208122 0.014217
vt 0.271654 0.014314
vt 0.479022 0.479760
vt 0.293976 0.459159
vn 1.000000 -0.000000 -0.000003
vn 1.000000 -0.000000 -0.000002
vn 1.000000 0.000000 -0.000003
vn 1.000000 0.000000 -0.000003
vn -0.000000 0.526733 0.850031
vn -0.000000 0.526732 0.850031
vn -0.000000 0.707106 0.707108
vn -0.000000 0.707106 0.707107
vn -1.000000 0.000000 0.000000
vn -1.000000 0.000000 0.000001
vn -1.000000 0.000000 -0.000001
vn -1.000000 0.000000 -0.000000
vn 0.000000 -0.068592 0.997645
vn 0.000000 -0.068592 0.997645
vn 0.000000 -0.068592 0.997645
vn 0.000000 -0.068592 0.997645
vn -1.000000 0.000000 0.000000
vn -1.000000 0.000000 0.000000
vn 0.000000 0.409547 0.912289
vn 0.000000 0.409547 0.912289
vn 1.000000 -0.000000 0.000000
vn 1.000000 -0.000000 0.000000
vn 1.000000 0.000000 0.000000
vn 1.000000 0.000000 0.000000
vn 1.000000 0.000000 0.000000
vn 1.000000 0.000000 0.000000
vn 0.000000 1.000000 0.000000
vn 0.000000 1.000000 0.000000
vn 0.000000 1.000000 0.000000
vn 0.000000 1.000000 0.000000
vn -1.000000 0.000000 0.000000
vn -1.000000 0.000000 0.000000
vn -1.000000 0.000000 0.000000
vn -1.000000 0.000000 0.000000
vn 0.000000 -1.000000 0.000000
vn 0.000000 -1.000000 0.000000
vn 0.000000 -1.000000 0.000000
vn 0.000000 -1.000000 0.000000
vn 1.000000 0.000000 0.000000
vn 1.000000 0.000000 0.000000
vn 1.000000 0.000000 0.000000
vn 1.000000 0.000000 0.000000
vn 0.000000 1.000000 0.000000
vn 0.000000 1.000000 0.000000
vn 0.000000 1.000000 0.000000
vn 0.000000 1.000000 0.000000
vn -1.000000 0.000000 0.000000
vn -1.000000 0.000000 0.000000
vn -1.000000 0.000000 0.000000
vn -1.000000 0.000000 0.000000
vn 0.000000 -1.000000 0.000000
vn 0.000000 -1.000000 0.000000
vn 0.000000 -1.000000 0.000000
vn 0.000000 -1.000000 0.000000
vn 0.000000 0.000000 -1.000000
vn 0.000000 0.000000 -1.000000
vn 0.000000 0.000000 -1.000000
vn 0.000000 0.000000 -1.000000
vn 0.850031 0.526733 0.000000
vn 0.850031 0.526733 0.000000
vn 0.707108 0.707106 0.000001
vn 0.707108 0.707106 0.000001
vn -0.000001 0.000000 1.000000
vn -0.000001 0.000000 1.000000
vn -0.000001 0.000000 1.000000
vn -0.000001 0.000000 1.000000
vn 0.997645 -0.068592 0.000000
vn 0.997645 -0.068592 0.000000
vn 0.997645 -0.068592 0.000000
vn 0.997645 -0.068592 0.000000
vn 0.000000 0.000000 1.000000
vn 0.000000 0.000000 1.000000
vn 0.912289 0.409547 0.000000
vn 0.912289 0.409547 0.000000
vn 0.000000 0.000000 -1.000000
vn 0.000000 0.000000 -1.000000
vn 1.000000 0.000000 -0.000000
vn 1.000000 0.000000 -0.000000
vn 1.000000 0.000000 -0.000000
vn 1.000000 0.000000 -0.000000
vn 0.000000 1.000000 0.000000
vn 0.000000 1.000000 0.000000
vn 0.000000 1.000000 0.000000
vn 0.000000 1.000000 0.000000
vn -1.000000 0.000000 0.000000
vn -1.000000 0.000000 0.000000
vn -1.000000 0.000000 0.000000
vn -1.000000 0.000000 0.000000
vn 0.000000 -1.000000 0.000000
vn 0.000000 -1.000000 0.000000
vn 0.000000 -1.000000 0.000000
vn 0.000000 -1.000000 0.000000
vn 1.000000 0.000000 -0.000000
vn 1.000000 0.000000 -0.000000
vn 1.000000 0.000000 -0.000000
vn 1.000000 0.000000 -0.000000
vn 0.000000 1.000000 0.000000
vn 0.000000 1.000000 0.000000
vn 0.000000 1.000000 0.000000
vn 0.000000 1.000000 0.000000
vn -1.000000 0.000000 0.000000
vn -1.000000 0.000000 0.000000
vn -1.000000 0.000000 0.000000
vn -1.000000 0.000000 0.000000
vn 0.000000 -1.000000 0.000000
vn 0.000000 -1.000000 0.000000
vn 0.000000 -1.000000 0.000000
vn 0.000000 -1.000000 0.000000
vn 1.000000 0.000000 0.000002
vn 1.000000 0.000000 0.000002
vn 1.000000 0.000000 0.000002
vn 1.000000 0.000000 0.000001
vn -0.000000 0.526732 -0.850032
vn -0.000000 0.707108 -0.707105
vn -0.000000 0.707108 -0.707105
vn -0.000000 0.526732 -0.850032
vn -1.000000 0.000000 0.000001
vn -1.000000 0.000000 0.000001
vn -1.000000 0.000000 0.000001
vn -1.000000 0.000000 0.000001
vn 0.000000 -0.068590 -0.997645
vn 0.000000 -0.068590 -0.997645
vn 0.000000 -0.068590 -0.997645
vn 0.000000 -0.068590 -0.997645
vn -1.000000 0.000000 0.000001
vn -1.000000 0.000000 0.000001
vn 0.000000 0.409544 -0.912290
vn 0.000000 0.409544 -0.912290
vn 1.000000 0.000000 -0.000000
vn 1.000000 0.000000 -0.000000
vn -0.000000 1.000000 0.000001
vn -0.000000 1.000000 0.000001
vn -0.000000 1.000000 0.000001
vn -0.000000 1.000000 0.000001
vn -1.000000 0.000000 -0.000001
vn -1.000000 0.000000 -0.000001
vn 0.000000 0.000000 1.000000
vn 0.000000 0.000000 1.000000
vn 0.000000 0.000000 1.000000
vn 0.000000 0.000000 1.000000
vn 0.000000 1.000000 0.000000
vn 0.000000 1.000000 0.000000
vn 0.000000 1.000000 0.000000
vn 0.000000 1.000000 0.000000
vn 0.000000 0.000000 -1.000000
vn 0.000000 0.000000 -1.000000
vn 0.000000 0.000000 -1.000000
vn 0.000000 0.000000 -1.000000
vn 0.000000 -1.000000 0.000000
vn 0.000000 -1.000000 0.000000
vn 0.000000 -1.000000 0.000000
vn 0.000000 -1.000000 0.000000
vn 0.000000 0.000000 1.000000
vn 0.000000 0.000000 1.000000
vn 0.000000 0.000000 1.000000
vn 0.000000 0.000000 1.000000
vn 0.000000 1.000000 0.000000
vn 0.000000 1.000000 0.000000
vn 0.000000 1.000000 0.000000
vn 0.000000 1.000000 0.000000
vn 0.000000 0.000000 -1.000000
vn 0.000000 0.000000 -1.000000
vn 0.000000 0.000000 -1.000000
vn 0.000000 0.000000 -1.000000
vn 0.000000 -1.000000 0.000000
vn 0.000000 -1.000000 0.000000
vn 0.000000 -1.000000 0.000000
vn 0.000000 -1.000000 0.000000
s 1
f 8/1/1 5/2/2 9/109/3 10/15/4
s 2
f 7/4/5 8/16/6 10/3/7 11/5/8
s 3
f 6/6/9 7/17/10 11/114/11 12/7/12
s off
f 4/8/13 1/9/14 2/10/15 3/11/16
s 3
f 3/14/17 7/17/10 6/6/9 4/12/18
s 2
f 2/10/19 8/16/6 7/4/5 3/11/20
s 1
f 1/13/21 5/2/2 8/1/1 2/18/22
s off
f 13/19/23 14/20/24 15/21/25 16/22/26
f 16/22/27 15/21/28 17/23/29 18/24/30
f 18/24/31 17/23/32 19/25/33 20/26/34
f 20/27/35 19/28/36 14/20/37 13/19/38
f 21/29/39 22/30/40 23/31/41 24/32/42
f 24/32/43 23/31/44 25/33/45 26/34/46
f 26/34/47 25/33/48 27/35/49 28/36/50
f 28/37/51 27/38/52 22/30/53 21/29/54
s 4
f 36/39/55 33/40/56 37/111/57 38/41/58
s 5
f 35/42/59 36/43/60 38/44/61 10/3/62
s 6
f 34/45/63 35/46/64 10/15/65 9/109/66
s off
f 32/47/67 29/48/68 30/49/69 31/50/70
s 6
f 31/52/71 35/46/64 34/45/63 32/112/72
s 5
f 30/49/73 36/43/60 35/42/59 31/50/74
s 4
f 29/51/75 33/40/56 36/39/55 30/53/76
s off
f 39/54/77 40/55/78 42/56/79 41/57/80
f 41/57/81 42/56/82 44/58/83 43/59/84
f 43/59/85 44/58/86 46/60/87 45/61/88
f 45/62/89 46/63/90 40/55/91 39/54/92
f 47/64/93 48/65/94 50/66/95 49/67/96
f 49/67/97 50/66/98 52/68/99 51/69/100
f 51/69/101 52/68/102 54/70/103 53/71/104
f 53/72/105 54/73/106 48/65/107 47/64/108
s 7
f 62/74/109 38/41/110 37/111/111 59/110/112
s 8
f 61/75/113 63/113/114 38/44/115 62/77/116
s 9
f 60/78/117 64/79/118 63/76/119 61/80/120
s off
f 58/81/121 57/82/122 56/83/123 55/84/124
s 9
f 57/87/125 58/85/126 60/78/117 61/80/120
s 8
f 56/83/127 57/82/128 61/75/113 62/77/116
s 7
f 55/86/129 56/88/130 62/74/109 59/110/112
s off
f 10/3/131 38/44/132 63/113/133 11/5/134
s 3
f 11/114/11 63/76/135 64/79/136 12/7/12
s off
f 65/89/137 66/90/138 67/91/139 68/92/140
f 68/92/141 67/91/142 69/93/143 70/94/144
f 70/94/145 69/93/146 71/95/147 72/96/148
f 72/97/149 71/98/150 66/90/151 65/89/152
f 73/99/153 74/100/154 75/101/155 76/102/156
f 76/102/157 75/101/158 77/103/159 78/104/160
f 78/104/161 77/103/162 79/105/163 80/106/164
f 80/107/165 79/108/166 74/100/167 73/99/168
